<?xml version="1.0" encoding="utf-8"?>
<!-- Generator: Adobe Illustrator 25.2.0, SVG Export Plug-In . SVG Version: 6.00 Build 0)  -->
<svg version="1.1" id="Layer_1" xmlns="http://www.w3.org/2000/svg" xmlns:xlink="http://www.w3.org/1999/xlink" x="0px" y="0px"
	 viewBox="0 0 512 512" style="enable-background:new 0 0 512 512;" xml:space="preserve">
<style type="text/css">
	.st0{fill:none;}
	.st1{fill:#E0E0E2;}
	.st2{fill:#231F20;}
</style>
<g id="Distillatory-4">
	<path class="st0" d="M32,64h192v280H32V64z"/>
	<path class="st0" d="M176,392H80l-16-48h128L176,392z"/>
	<path class="st1" d="M104,392h48v48h-48V392z"/>
	<path class="st1" d="M32,344h24v152H32V344z"/>
	<path class="st1" d="M200,344h24v152h-24V344z"/>
	<path class="st0" d="M480,216v32H256v-32c0-44.2,35.8-80,80-80l8-8V16h48v112l8,8c11,0,21.9,2.3,32,6.7
		C461.2,155.4,480,184.2,480,216z"/>
	<path class="st0" d="M480,392v88c0,8.8-7.2,16-16,16H272c-8.8,0-16-7.2-16-16v-88H480z"/>
	<path class="st0" d="M256,248h224v144H256V248z"/>
	<path class="st1" d="M264,56h80v24h-80V56z"/>
	<path class="st1" d="M456,56v102.9c-7-6.8-15.1-12.3-24-16.2V80h-40V56H456z"/>
	<g>
		<path class="st2" d="M224,56h-24v-8c0-22.1-17.9-40-40-40H96C73.9,8,56,25.9,56,48v8H32c-4.4,0-8,3.6-8,8v432c0,4.4,3.6,8,8,8h24
			c4.4,0,8-3.6,8-8V369.3l8.4,25.2c1.1,3.3,4.1,5.5,7.6,5.5h16v40c0,4.4,3.6,8,8,8h48c4.4,0,8-3.6,8-8v-40h16c3.4,0,6.5-2.2,7.6-5.5
			l8.4-25.2V496c0,4.4,3.6,8,8,8h24c4.4,0,8-3.6,8-8V64C232,59.6,228.4,56,224,56z M72,48c0-13.3,10.7-24,24-24h64
			c13.3,0,24,10.7,24,24v8H72V48z M48,488h-8V352h8V488z M144,432h-32v-32h32V432z M170.2,384H85.8l-10.7-32h105.8L170.2,384z
			 M216,488h-8V352h8V488z M216,336H40V72h176V336z"/>
		<path class="st2" d="M64,216h128c4.4,0,8-3.6,8-8v-48c0-4.4-3.6-8-8-8H64c-4.4,0-8,3.6-8,8v48C56,212.4,59.6,216,64,216z M72,168
			h112v32H72V168z"/>
		<path class="st2" d="M160,304h-56c-4.4,0-8,3.6-8,8s3.6,8,8,8h56c4.4,0,8-3.6,8-8S164.4,304,160,304z"/>
		<path class="st2" d="M192,304h-8c-4.4,0-8,3.6-8,8s3.6,8,8,8h8c4.4,0,8-3.6,8-8S196.4,304,192,304z"/>
		<path class="st2" d="M464,155.8V56c0-4.4-3.6-8-8-8h-56V16c0-4.4-3.6-8-8-8h-48c-4.4,0-8,3.6-8,8v32h-72c-4.4,0-8,3.6-8,8v24
			c0,4.4,3.6,8,8,8h72v40c-48.6,0.1-87.9,39.4-88,88v264c0,13.3,10.7,24,24,24h192c13.3,0,24-10.7,24-24V216
			C488,193.6,479.4,172,464,155.8z M264,256h208v128H264V256z M400,128V88h24v43.4C416.2,129.2,408.1,128,400,128z M448,64v78.3
			c-0.6-0.4-1.3-0.7-1.9-1.1c-1.6-1-3.3-2-5-2.9c-0.4-0.2-0.7-0.4-1-0.6V80c0-4.4-3.6-8-8-8h-32v-8L448,64z M352,24h32v8h-32V24z
			 M272,72v-8h64v8H272z M264,216c0-39.7,32.3-72,72-72h8c4.4,0,8-3.6,8-8V48h32v88c0,4.4,3.6,8,8,8h8c9.9,0,19.7,2,28.8,6
			c8,3.5,15.3,8.4,21.6,14.5c13.8,13.5,21.6,32.1,21.6,51.4v24H264V216z M472,480c0,4.4-3.6,8-8,8H272c-4.4,0-8-3.6-8-8v-80h208V480
			z"/>
		<path class="st2" d="M368,264c-30.9,0-56,25.1-56,56s25.1,56,56,56s56-25.1,56-56C424,289.1,398.9,264,368,264z M368,360
			c-22.1,0-40-17.9-40-40s17.9-40,40-40s40,17.9,40,40C408,342.1,390.1,360,368,360z"/>
		<path class="st2" d="M288,472h64c4.4,0,8-3.6,8-8s-3.6-8-8-8h-64c-4.4,0-8,3.6-8,8S283.6,472,288,472z"/>
		<path class="st2" d="M376,472h8c4.4,0,8-3.6,8-8s-3.6-8-8-8h-8c-4.4,0-8,3.6-8,8S371.6,472,376,472z"/>
	</g>
</g>
</svg>
