<?xml version="1.0" encoding="utf-8"?>
<!-- Generator: Adobe Illustrator 25.2.0, SVG Export Plug-In . SVG Version: 6.00 Build 0)  -->
<svg version="1.1" id="Layer_33" xmlns="http://www.w3.org/2000/svg" xmlns:xlink="http://www.w3.org/1999/xlink" x="0px" y="0px"
	 viewBox="0 0 512 512" style="enable-background:new 0 0 512 512;" xml:space="preserve">
<path d="M232,288c0,13.2,10.8,24,24,24s24-10.8,24-24s-10.8-24-24-24S232,274.8,232,288z M264,288c0,4.4-3.6,8-8,8s-8-3.6-8-8
	s3.6-8,8-8C260.4,280,264,283.6,264,288z"/>
<path d="M282,261.3l12-10.6c-10.6-12.1-24.1-18.7-38-18.7s-27.4,6.6-38,18.7l12,10.6C245.3,243.9,266.7,243.9,282,261.3z"/>
<path d="M216,328h16v16h-16V328z"/>
<path d="M248,328h48v16h-48V328z"/>
<path d="M216,360h80v16h-80V360z"/>
<circle cx="256" cy="400" r="8"/>
<circle cx="288" cy="400" r="8"/>
<circle cx="224" cy="400" r="8"/>
<path d="M272,200h-32c-30.9,0-56,25.1-56,56v184h144V256C328,225.1,302.9,200,272,200z M312,424H200V256c0-22.1,17.9-40,40-40h32
	c22.1,0,40,17.9,40,40V424z"/>
<path d="M388.4,185.3l-6.5-4.3c-32.9-21.4-54.3-36.9-64-46.2c5.9-2.3,10.2-8.1,10.2-14.9v-16c0-8.8-7.2-16-16-16V56
	c8.8,0,16-7.2,16-16V24c0-8.8-7.2-16-16-16H200c-8.8,0-16,7.2-16,16v16c0,8.8,7.2,16,16,16v32c-8.8,0-16,7.2-16,16v16
	c0,6.8,4.2,12.5,10.2,14.9c-9.7,9.3-31.1,24.8-64,46.2l-6.5,4.3c-6.8,4.5-11.8,14.3-11.6,22.9l8,272c0.4,13.3,10.7,23.8,23.6,23.8
	h224.9c12.8,0,23.2-10.4,23.6-23.8l8-272C400.2,199.6,395.2,189.8,388.4,185.3L388.4,185.3z M248,56h16v80h-16V56z M280,104h32v16
	h-32V104z M296,88h-16V56h16V88z M200,24h112l0,16H200V24z M216,56h16v32h-16V56z M200,104h32v16h-32V104z M376,479.8
	c-0.1,4.6-3.4,8.2-7.6,8.2H143.6c-4.1,0-7.4-3.6-7.6-8.2l-8-272c-0.1-2.9,2.2-7.7,4.4-9.1l6.5-4.2c46.7-30.4,68-46.8,74.7-58.5H232
	v16h48v-16h18.4c6.6,11.7,27.9,28.1,74.7,58.5l6.5,4.2c2.2,1.4,4.5,6.2,4.4,9.1L376,479.8z"/>
</svg>
